<?xml version="1.0" encoding="UTF-8" standalone="no"?>
<svg
   xmlns:dc="http://purl.org/dc/elements/1.1/"
   xmlns:cc="http://creativecommons.org/ns#"
   xmlns:rdf="http://www.w3.org/1999/02/22-rdf-syntax-ns#"
   xmlns:svg="http://www.w3.org/2000/svg"
   xmlns="http://www.w3.org/2000/svg"
   xmlns:sodipodi="http://sodipodi.sourceforge.net/DTD/sodipodi-0.dtd"
   xmlns:inkscape="http://www.inkscape.org/namespaces/inkscape"
   width="210mm"
   height="210mm"
   viewBox="0 0 210 210"
   version="1.1"
   id="svg8">
  <defs
     id="defs2">
    <rect
       x="12.532227"
       y="13.334388"
       width="161.70239"
       height="196.38615"
       id="rect847" />
  </defs>
  <sodipodi:namedview
     id="base"
     pagecolor="#ffffff"
     bordercolor="#666666"
     borderopacity="1.0"
     inkscape:pageopacity="0.0"
     inkscape:pageshadow="2"
     inkscape:zoom="0.5"
     inkscape:cx="183.41514"
     inkscape:cy="437.97828"
     inkscape:document-units="mm"
     inkscape:current-layer="layer1"
     inkscape:document-rotation="0"
     showgrid="false"
     inkscape:window-width="1848"
     inkscape:window-height="1016"
     inkscape:window-x="72"
     inkscape:window-y="27"
     inkscape:window-maximized="1" />
  <metadata
     id="metadata5">
    <rdf:RDF>
      <cc:Work
         rdf:about="">
        <dc:format>image/svg+xml</dc:format>
        <dc:type
           rdf:resource="http://purl.org/dc/dcmitype/StillImage" />
        <dc:title />
      </cc:Work>
    </rdf:RDF>
  </metadata>
  <g
     inkscape:label="Capa 1"
     inkscape:groupmode="layer"
     id="layer1">
    <rect
       style="fill:#e03c3a;fill-opacity:1;stroke-width:0.262049"
       id="rect840"
       width="195"
       height="195"
       x="7.5"
       y="7.5"
       ry="39.927975" />
    <g
       id="g1028"
       transform="matrix(1,0,0,0.99999839,8.7077287,12.926747)"
       style="fill:#1a1a1a;fill-opacity:1">
      <g
         aria-label="开"
         transform="translate(7.1477272,-23.092698)"
         id="text845"
         style="font-style:normal;font-weight:normal;font-size:158.044px;line-height:1.25;font-family:sans-serif;white-space:pre;shape-inside:url(#rect847);fill:#1a1a1a;fill-opacity:1;stroke:none">
        <path
           d="m 69.833071,91.564327 5.35e-4,-4.58328 -3.33e-4,-21.808629 h 44.388637 l 8.1e-4,26.391909 z m 88.889469,0 h -24.99992 l -3.1e-4,-26.391909 h 25.00023 L 158.72196,47.47149 H 25.332544 l 7.29e-4,17.700928 h 25 l -3.33e-4,21.650585 6.6e-5,4.741324 H 25.332544 v 18.017013 h 25.000462 v 12.17083 l -6.6e-5,41.56953 h 19.500333 l -1.03e-4,-41.56953 v -12.17083 h 44.38954 v 53.74019 l 19.49993,1.7e-4 -2e-5,-53.74036 h 24.99992 z"
           style="font-style:normal;font-variant:normal;font-weight:bold;font-stretch:normal;font-family:sans-serif;-inkscape-font-specification:'sans-serif Bold';fill:#1a1a1a;fill-opacity:1"
           id="path938"
           sodipodi:nodetypes="cccccccccccccccccccccccccccccc" />
      </g>
      <ellipse
         style="fill:#1a1a1a;fill-opacity:1;stroke-width:0.208959"
         id="path853"
         transform="matrix(0.9582627,-0.28588912,0.31094266,0.95042867,0,0)"
         ry="17.085882"
         rx="22.816061"
         cy="151.96115"
         cx="7.5561662" />
      <ellipse
         style="fill:#1a1a1a;fill-opacity:1;stroke-width:0.208959"
         id="path853-4"
         cx="68.299911"
         cy="170.23264"
         rx="22.816063"
         ry="17.08588"
         transform="matrix(0.95826247,-0.28588991,0.31094366,0.95042835,0,0)" />
    </g>
  </g>
</svg>
